<svg width="69" height="67" viewBox="0 0 69 67" fill="none" xmlns="http://www.w3.org/2000/svg">
<g filter="url(#filter0_d_29_9)">
<g filter="url(#filter1_d_29_9)">
<path d="M24.4536 33.6845C23.5779 31.7311 23.1318 29.6406 23.1405 27.5312C23.1405 24.2616 24.2068 21.0655 26.2045 18.347C28.2022 15.6284 31.0416 13.5096 34.3637 12.2584C37.6858 11.0072 41.3413 10.6798 44.868 11.3176C48.3947 11.9555 51.6342 13.53 54.1768 15.8419C56.7194 18.1538 58.451 21.0994 59.1525 24.3061C59.854 27.5129 59.4939 30.8367 58.1179 33.8574C56.7418 36.8781 54.4116 39.4599 51.4218 41.2764C48.432 43.0929 44.9169 44.0624 41.3212 44.0624C39.0013 44.0703 38.4193 43.9402 36.271 43.144L31.2208 45.8992H25.1606V51.4096H19.1004V56.92H9V47.736L24.4536 33.6845Z" stroke="#5F567A" stroke-width="4" stroke-linecap="round" stroke-linejoin="round" shape-rendering="crispEdges"/>
</g>
<path d="M46.3712 25.6947C48.0447 25.6947 49.4013 24.4611 49.4013 22.9395C49.4013 21.4178 48.0447 20.1843 46.3712 20.1843C44.6978 20.1843 43.3411 21.4178 43.3411 22.9395C43.3411 24.4611 44.6978 25.6947 46.3712 25.6947Z" fill="#5F567A"/>
</g>
<defs>
<filter id="filter0_d_29_9" x="0" y="0" width="68.5018" height="63.92" filterUnits="userSpaceOnUse" color-interpolation-filters="sRGB">
<feFlood flood-opacity="0" result="BackgroundImageFix"/>
<feColorMatrix in="SourceAlpha" type="matrix" values="0 0 0 0 0 0 0 0 0 0 0 0 0 0 0 0 0 0 127 0" result="hardAlpha"/>
<feOffset dy="-2"/>
<feGaussianBlur stdDeviation="3.5"/>
<feComposite in2="hardAlpha" operator="out"/>
<feColorMatrix type="matrix" values="0 0 0 0 0 0 0 0 0 0 0 0 0 0 0 0 0 0 0.25 0"/>
<feBlend mode="normal" in2="BackgroundImageFix" result="effect1_dropShadow_29_9"/>
<feBlend mode="normal" in="SourceGraphic" in2="effect1_dropShadow_29_9" result="shape"/>
</filter>
<filter id="filter1_d_29_9" x="3" y="9" width="62.5018" height="57.92" filterUnits="userSpaceOnUse" color-interpolation-filters="sRGB">
<feFlood flood-opacity="0" result="BackgroundImageFix"/>
<feColorMatrix in="SourceAlpha" type="matrix" values="0 0 0 0 0 0 0 0 0 0 0 0 0 0 0 0 0 0 127 0" result="hardAlpha"/>
<feOffset dy="4"/>
<feGaussianBlur stdDeviation="2"/>
<feComposite in2="hardAlpha" operator="out"/>
<feColorMatrix type="matrix" values="0 0 0 0 0 0 0 0 0 0 0 0 0 0 0 0 0 0 0.25 0"/>
<feBlend mode="normal" in2="BackgroundImageFix" result="effect1_dropShadow_29_9"/>
<feBlend mode="normal" in="SourceGraphic" in2="effect1_dropShadow_29_9" result="shape"/>
</filter>
</defs>
</svg>
